<?xml version="1.0" ?>
<!DOCTYPE svg  PUBLIC '-//W3C//DTD SVG 1.1//EN'  'http://www.w3.org/Graphics/SVG/1.1/DTD/svg11.dtd'>
<svg 
enable-background="new 0 0 64 64" 
height="64px" 
id="Layer_1" 
version="1.1" 
viewBox="0 0 64 64" 
width="64px" 
xml:space="preserve" 
xmlns="http://www.w3.org/2000/svg" 
xmlns:xlink="http://www.w3.org/1999/xlink">
<g>
<g><g><g>
<path d="M36,61.3L61.3,36c2.2-2.2,2.2-5.8,0-8L36,2.7c-2.2-2.2-5.8-2.2-8,0L2.7,28c-2.2,2.2-2.2,5.8,0,8L28,61.3  
C30.2,63.6,33.8,63.6,36,61.3z" 
fill="#808080"/></g></g><g>
<g><path d="M36,61.3L61.3,36c2.2-2.2,2.2-5.8,0-8L36,2.7c-2.2-2.2-5.8-2.2-8,0L2.7,28c-2.2,2.2-2.2,5.8,0,8L28,61.3      
C30.2,63.6,33.8,63.6,36,61.3z" 
fill="#808080"/></g></g>
<g>
<rect fill="#8c8c8c" 
height="20.4" 
transform="matrix(0.7071 -0.7071 0.7071 0.7071 -20.727 39.9993)" 
width="24.7" 
x="25.6" 
y="34.8"/></g><g><g>
<path d="M61.3,36c2.2-2.2,2.2-5.8,0-8L36,2.7c-2.2-2.2-5.8-2.2-8,0L2.7,28c-2.2,2.2-2.2,5.8,0,8" 
fill="#8c8c8c"/></g></g>
<g><path d="M45.5,18.5L19.2,44.8c3.3,2.9,7.5,4.6,12.2,4.6C41.7,49.4,50,41,50,30.7C50,26.1,48.3,21.8,45.5,18.5z" 
fill="#737373"/></g>
<g><g><path d="M48.7,15.3L36,2.7c-2.2-2.2-5.8-2.2-8,0L2.7,28c-2.2,2.2-2.2,5.8,0,8l12.7,12.7L48.7,15.3z" 
fill="#07A8EF"/></g></g><g><g><path d="M2.7,36l12.7,12.7l33.4-33.4L36,2.7c-2.2-2.2-5.8-2.2-8,0" 
fill="#0086D1"/></g></g><g><g><path d="M15.3,48.7l33.4-33.4L36,2.7c-2.2-2.2-5.8-2.2-8,0" 
fill="#0063A6"/></g></g><g><g><g>
<path d="M44.8,34.6c-1,5-5.4,9.3-10.8,9.9c-2.2,0.2-4.2-0.1-6.1-0.9c-0.3,0.3-4,4-4.4,4.4       
c3.2,1.9,7.1,2.9,11.1,2.5c6.8-0.7,12.4-5.2,15-11.1L44.8,34.6z" fill="#FFFFFF"/></g></g>
<g><g><path d="M44.8,34.6c-1,5-5.4,9.3-10.8,9.9c-2.2,0.2-4.2-0.1-6.1-0.9c-0.3,0.3-4,4-4.4,4.4       
c3.2,1.9,7.1,2.9,11.1,2.5c6.8-0.7,12.4-5.2,15-11.1L44.8,34.6z" fill="#FFFFFF"/></g></g>
<g><path d="M49.5,39.3L45.3,35c-0.2,0.3-0.5,0.6-0.8,0.8C43.1,40.3,39,44,34,44.5c-1.8,0.2-3.5,0-5.1-0.6     
 c2.7,1.1,5.8,1.7,8.9,1.3C42.5,44.8,46.6,42.5,49.5,39.3z" fill="#CBE4EF"/></g>
<g><g><path d="M19.8,45.2c0.7,0.7,1.4,1.3,2.2,1.9l25.6-25.6c-0.6-0.8-1.2-1.5-1.9-2.2L19.8,45.2z" 
fill="#FFFFFF"/></g></g>
<g><g><path d="M44.6,18.3c-0.9-0.7-1.6-1.3-2.4-1.8c-3.3-2-7.2-3-11.3-2.6c-10.1,1-17.4,10-16.4,20.1       
c0.3,3.1,1.3,5.7,2.8,8.1c0.4,0.7,1.5,2,1.5,2L44.6,18.3z M32,19.8c2.1-0.2,4.2,0.1,6,0.9L21.8,36.9c-0.5-1.1-0.8-2.3-0.9-3.5      
 C20.3,26.6,25.2,20.5,32,19.8z" 
fill="#FFFFFF"/></g></g>
<g><g><path d="M14.5,34c0.3,3.1,1.3,5.7,2.8,8.1c0.4,0.7,1.5,2,1.5,2l25.8-25.8c-0.9-0.7-1.6-1.3-2.4-1.8       
c-3.3-2-7.2-3-11.3-2.6 M32,19.8c2.1-0.2,4.2,0.1,6,0.9L21.8,36.9c-0.5-1.1-0.8-2.3-0.9-3.5C20.3,26.6,25.2,20.5,32,19.8z" 
fill="#CBE4EF"/></g></g></g></g><g><path d="M24.2,40.9c0.7,0.7,1.5,1.3,2.4,1.8l21.1-21.1c-0.6-0.8-1.2-1.5-1.9-2.2L24.2,40.9z" 
fill="#CBE4EF"/></g></g>
</svg>